<svg width="76" height="35" viewBox="0 0 76 35" fill="none" xmlns="http://www.w3.org/2000/svg">
<mask id="mask0_870_29206" style="mask-type:alpha" maskUnits="userSpaceOnUse" x="0" y="0" width="76" height="35">
<rect width="75.2128" height="35" fill="#D9D9D9"/>
</mask>
<g mask="url(#mask0_870_29206)">
<path d="M43.3895 0.576V9H41.3375V3.948L39.4535 9H37.7975L35.9015 3.936V9H33.8495V0.576H36.2735L38.6375 6.408L40.9775 0.576H43.3895ZM44.4571 5.64C44.4571 4.952 44.5851 4.348 44.8411 3.828C45.1051 3.308 45.4611 2.908 45.9091 2.628C46.3571 2.348 46.8571 2.208 47.4091 2.208C47.8811 2.208 48.2931 2.304 48.6451 2.496C49.0051 2.688 49.2811 2.94 49.4731 3.252V2.304H51.5251V9H49.4731V8.052C49.2731 8.364 48.9931 8.616 48.6331 8.808C48.2811 9 47.8691 9.096 47.3971 9.096C46.8531 9.096 46.3571 8.956 45.9091 8.676C45.4611 8.388 45.1051 7.984 44.8411 7.464C44.5851 6.936 44.4571 6.328 44.4571 5.64ZM49.4731 5.652C49.4731 5.14 49.3291 4.736 49.0411 4.44C48.7611 4.144 48.4171 3.996 48.0091 3.996C47.6011 3.996 47.2531 4.144 46.9651 4.44C46.6851 4.728 46.5451 5.128 46.5451 5.64C46.5451 6.152 46.6851 6.56 46.9651 6.864C47.2531 7.16 47.6011 7.308 48.0091 7.308C48.4171 7.308 48.7611 7.16 49.0411 6.864C49.3291 6.568 49.4731 6.164 49.4731 5.652ZM55.7336 9.096C55.1496 9.096 54.6296 8.996 54.1736 8.796C53.7176 8.596 53.3576 8.324 53.0936 7.98C52.8296 7.628 52.6816 7.236 52.6496 6.804H54.6776C54.7016 7.036 54.8096 7.224 55.0016 7.368C55.1936 7.512 55.4296 7.584 55.7096 7.584C55.9656 7.584 56.1616 7.536 56.2976 7.44C56.4416 7.336 56.5136 7.204 56.5136 7.044C56.5136 6.852 56.4136 6.712 56.2136 6.624C56.0136 6.528 55.6896 6.424 55.2416 6.312C54.7616 6.2 54.3616 6.084 54.0416 5.964C53.7216 5.836 53.4456 5.64 53.2136 5.376C52.9816 5.104 52.8656 4.74 52.8656 4.284C52.8656 3.9 52.9696 3.552 53.1776 3.24C53.3936 2.92 53.7056 2.668 54.1136 2.484C54.5296 2.3 55.0216 2.208 55.5896 2.208C56.4296 2.208 57.0896 2.416 57.5696 2.832C58.0576 3.248 58.3376 3.8 58.4096 4.488H56.5136C56.4816 4.256 56.3776 4.072 56.2016 3.936C56.0336 3.8 55.8096 3.732 55.5296 3.732C55.2896 3.732 55.1056 3.78 54.9776 3.876C54.8496 3.964 54.7856 4.088 54.7856 4.248C54.7856 4.44 54.8856 4.584 55.0856 4.68C55.2936 4.776 55.6136 4.872 56.0456 4.968C56.5416 5.096 56.9456 5.224 57.2576 5.352C57.5696 5.472 57.8416 5.672 58.0736 5.952C58.3136 6.224 58.4376 6.592 58.4456 7.056C58.4456 7.448 58.3336 7.8 58.1096 8.112C57.8936 8.416 57.5776 8.656 57.1616 8.832C56.7536 9.008 56.2776 9.096 55.7336 9.096Z" fill="url(#paint0_linear_870_29206)"/>
<path d="M39.9095 12.576V14.22H37.6775V21H35.6255V14.22H33.3935V12.576H39.9095ZM43.9873 21.096C43.3313 21.096 42.7393 20.956 42.2113 20.676C41.6913 20.396 41.2793 19.996 40.9753 19.476C40.6793 18.956 40.5313 18.348 40.5313 17.652C40.5313 16.964 40.6833 16.36 40.9873 15.84C41.2913 15.312 41.7073 14.908 42.2353 14.628C42.7633 14.348 43.3553 14.208 44.0113 14.208C44.6673 14.208 45.2593 14.348 45.7873 14.628C46.3153 14.908 46.7313 15.312 47.0353 15.84C47.3393 16.36 47.4913 16.964 47.4913 17.652C47.4913 18.34 47.3353 18.948 47.0233 19.476C46.7193 19.996 46.2993 20.396 45.7633 20.676C45.2353 20.956 44.6433 21.096 43.9873 21.096ZM43.9873 19.32C44.3793 19.32 44.7113 19.176 44.9833 18.888C45.2633 18.6 45.4033 18.188 45.4033 17.652C45.4033 17.116 45.2673 16.704 44.9953 16.416C44.7313 16.128 44.4033 15.984 44.0113 15.984C43.6113 15.984 43.2793 16.128 43.0153 16.416C42.7513 16.696 42.6193 17.108 42.6193 17.652C42.6193 18.188 42.7473 18.6 43.0033 18.888C43.2673 19.176 43.5953 19.32 43.9873 19.32ZM50.6319 12.12V21H48.5799V12.12H50.6319ZM55.167 21.096C54.511 21.096 53.919 20.956 53.391 20.676C52.871 20.396 52.459 19.996 52.155 19.476C51.859 18.956 51.711 18.348 51.711 17.652C51.711 16.964 51.863 16.36 52.167 15.84C52.471 15.312 52.887 14.908 53.415 14.628C53.943 14.348 54.535 14.208 55.191 14.208C55.847 14.208 56.439 14.348 56.967 14.628C57.495 14.908 57.911 15.312 58.215 15.84C58.519 16.36 58.671 16.964 58.671 17.652C58.671 18.34 58.515 18.948 58.203 19.476C57.899 19.996 57.479 20.396 56.943 20.676C56.415 20.956 55.823 21.096 55.167 21.096ZM55.167 19.32C55.559 19.32 55.891 19.176 56.163 18.888C56.443 18.6 56.583 18.188 56.583 17.652C56.583 17.116 56.447 16.704 56.175 16.416C55.911 16.128 55.583 15.984 55.191 15.984C54.791 15.984 54.459 16.128 54.195 16.416C53.931 16.696 53.799 17.108 53.799 17.652C53.799 18.188 53.927 18.6 54.183 18.888C54.447 19.176 54.775 19.32 55.167 19.32ZM63.8396 14.232C64.6236 14.232 65.2476 14.488 65.7116 15C66.1836 15.504 66.4196 16.2 66.4196 17.088V21H64.3796V17.364C64.3796 16.916 64.2636 16.568 64.0316 16.32C63.7996 16.072 63.4876 15.948 63.0956 15.948C62.7036 15.948 62.3916 16.072 62.1596 16.32C61.9276 16.568 61.8116 16.916 61.8116 17.364V21H59.7596V14.304H61.8116V15.192C62.0196 14.896 62.2996 14.664 62.6516 14.496C63.0036 14.32 63.3996 14.232 63.8396 14.232ZM70.3896 14.208C70.8616 14.208 71.2736 14.304 71.6256 14.496C71.9856 14.688 72.2616 14.94 72.4536 15.252V14.304H74.5056V20.988C74.5056 21.604 74.3816 22.16 74.1336 22.656C73.8936 23.16 73.5216 23.56 73.0176 23.856C72.5216 24.152 71.9016 24.3 71.1576 24.3C70.1656 24.3 69.3616 24.064 68.7456 23.592C68.1296 23.128 67.7776 22.496 67.6896 21.696H69.7176C69.7816 21.952 69.9336 22.152 70.1736 22.296C70.4136 22.448 70.7096 22.524 71.0616 22.524C71.4856 22.524 71.8216 22.4 72.0696 22.152C72.3256 21.912 72.4536 21.524 72.4536 20.988V20.04C72.2536 20.352 71.9776 20.608 71.6256 20.808C71.2736 21 70.8616 21.096 70.3896 21.096C69.8376 21.096 69.3376 20.956 68.8896 20.676C68.4416 20.388 68.0856 19.984 67.8216 19.464C67.5656 18.936 67.4376 18.328 67.4376 17.64C67.4376 16.952 67.5656 16.348 67.8216 15.828C68.0856 15.308 68.4416 14.908 68.8896 14.628C69.3376 14.348 69.8376 14.208 70.3896 14.208ZM72.4536 17.652C72.4536 17.14 72.3096 16.736 72.0216 16.44C71.7416 16.144 71.3976 15.996 70.9896 15.996C70.5816 15.996 70.2336 16.144 69.9456 16.44C69.6656 16.728 69.5256 17.128 69.5256 17.64C69.5256 18.152 69.6656 18.56 69.9456 18.864C70.2336 19.16 70.5816 19.308 70.9896 19.308C71.3976 19.308 71.7416 19.16 72.0216 18.864C72.3096 18.568 72.4536 18.164 72.4536 17.652Z" fill="url(#paint1_linear_870_29206)"/>
<path d="M43.3895 24.576V33H41.3375V27.948L39.4535 33H37.7975L35.9015 27.936V33H33.8495V24.576H36.2735L38.6375 30.408L40.9775 24.576H43.3895ZM44.4571 29.64C44.4571 28.952 44.5851 28.348 44.8411 27.828C45.1051 27.308 45.4611 26.908 45.9091 26.628C46.3571 26.348 46.8571 26.208 47.4091 26.208C47.8811 26.208 48.2931 26.304 48.6451 26.496C49.0051 26.688 49.2811 26.94 49.4731 27.252V26.304H51.5251V33H49.4731V32.052C49.2731 32.364 48.9931 32.616 48.6331 32.808C48.2811 33 47.8691 33.096 47.3971 33.096C46.8531 33.096 46.3571 32.956 45.9091 32.676C45.4611 32.388 45.1051 31.984 44.8411 31.464C44.5851 30.936 44.4571 30.328 44.4571 29.64ZM49.4731 29.652C49.4731 29.14 49.3291 28.736 49.0411 28.44C48.7611 28.144 48.4171 27.996 48.0091 27.996C47.6011 27.996 47.2531 28.144 46.9651 28.44C46.6851 28.728 46.5451 29.128 46.5451 29.64C46.5451 30.152 46.6851 30.56 46.9651 30.864C47.2531 31.16 47.6011 31.308 48.0091 31.308C48.4171 31.308 48.7611 31.16 49.0411 30.864C49.3291 30.568 49.4731 30.164 49.4731 29.652ZM55.7336 33.096C55.1496 33.096 54.6296 32.996 54.1736 32.796C53.7176 32.596 53.3576 32.324 53.0936 31.98C52.8296 31.628 52.6816 31.236 52.6496 30.804H54.6776C54.7016 31.036 54.8096 31.224 55.0016 31.368C55.1936 31.512 55.4296 31.584 55.7096 31.584C55.9656 31.584 56.1616 31.536 56.2976 31.44C56.4416 31.336 56.5136 31.204 56.5136 31.044C56.5136 30.852 56.4136 30.712 56.2136 30.624C56.0136 30.528 55.6896 30.424 55.2416 30.312C54.7616 30.2 54.3616 30.084 54.0416 29.964C53.7216 29.836 53.4456 29.64 53.2136 29.376C52.9816 29.104 52.8656 28.74 52.8656 28.284C52.8656 27.9 52.9696 27.552 53.1776 27.24C53.3936 26.92 53.7056 26.668 54.1136 26.484C54.5296 26.3 55.0216 26.208 55.5896 26.208C56.4296 26.208 57.0896 26.416 57.5696 26.832C58.0576 27.248 58.3376 27.8 58.4096 28.488H56.5136C56.4816 28.256 56.3776 28.072 56.2016 27.936C56.0336 27.8 55.8096 27.732 55.5296 27.732C55.2896 27.732 55.1056 27.78 54.9776 27.876C54.8496 27.964 54.7856 28.088 54.7856 28.248C54.7856 28.44 54.8856 28.584 55.0856 28.68C55.2936 28.776 55.6136 28.872 56.0456 28.968C56.5416 29.096 56.9456 29.224 57.2576 29.352C57.5696 29.472 57.8416 29.672 58.0736 29.952C58.3136 30.224 58.4376 30.592 58.4456 31.056C58.4456 31.448 58.3336 31.8 58.1096 32.112C57.8936 32.416 57.5776 32.656 57.1616 32.832C56.7536 33.008 56.2776 33.096 55.7336 33.096ZM60.661 33.096C60.301 33.096 60.005 32.992 59.773 32.784C59.549 32.568 59.437 32.304 59.437 31.992C59.437 31.672 59.549 31.404 59.773 31.188C60.005 30.972 60.301 30.864 60.661 30.864C61.013 30.864 61.301 30.972 61.525 31.188C61.757 31.404 61.873 31.672 61.873 31.992C61.873 32.304 61.757 32.568 61.525 32.784C61.301 32.992 61.013 33.096 60.661 33.096Z" fill="url(#paint2_linear_870_29206)"/>
<path d="M14.1055 0H26.1055C26.9011 0 27.6642 0.347677 28.2268 0.966547C28.7894 1.58542 29.1055 2.42479 29.1055 3.3V29.7C29.1055 30.5752 28.7894 31.4146 28.2268 32.0335C27.6642 32.6523 26.9011 33 26.1055 33H14.1055C13.3098 33 12.5468 32.6523 11.9841 32.0335C11.4215 31.4146 11.1055 30.5752 11.1055 29.7V3.3C11.1055 2.42479 11.4215 1.58542 11.9841 0.966547C12.5468 0.347677 13.3098 0 14.1055 0ZM14.1055 3.3V6.6H26.1055V3.3H14.1055ZM26.1055 9.9H14.1055V13.2H26.1055V9.9ZM26.1055 26.4H23.1055V29.7H26.1055V26.4Z" fill="url(#paint3_linear_870_29206)"/>
<path d="M1.86961 1.24415L0.95844 5.05295L2.24793 6.36562L2.27727 16.7971L0.845833 16.8029C0.338406 16.805 -0.0706702 17.2174 -0.0686115 17.7248C-0.0665529 18.2322 -0.122642 18.6419 -0.122642 18.6419L0.409443 18.6398C0.404251 18.6398 0.398414 18.6405 0.393223 18.6405C0.403039 21.2198 -0.0508329 22.4266 -0.0508329 22.4266L0.0360862 30.5757C0.0387964 31.0838 0.449252 31.4909 0.957329 31.4895L5.54623 31.4709C6.05301 31.4695 6.46208 31.0571 6.46002 30.5497L6.37246 22.4012C6.37246 22.4012 5.90947 21.2 5.89834 18.6168L6.35775 18.615C6.35775 18.615 6.35544 18.2055 6.35402 17.6975C6.35196 17.19 5.94021 16.7816 5.43278 16.7837L4.04158 16.7893L3.97395 6.35862L5.29617 5.02432L4.34574 1.2341L1.86961 1.24415ZM0.900945 30.5469L0.867522 22.3087L1.78439 22.3043L1.81846 30.5432L0.900945 30.5469ZM2.7653 30.5685L2.73058 22.329L3.6494 22.3266L3.68282 30.5648L2.7653 30.5685ZM5.51786 30.5574L4.60034 30.5611L4.56627 22.3222L5.48443 22.3179L5.51786 30.5574Z" fill="#01C36E"/>
</g>
<defs>
<linearGradient id="paint0_linear_870_29206" x1="46.1055" y1="-1" x2="46.1055" y2="11" gradientUnits="userSpaceOnUse">
<stop stop-color="#00C4AA"/>
<stop offset="1" stop-color="#00CE4C"/>
</linearGradient>
<linearGradient id="paint1_linear_870_29206" x1="55.1055" y1="11" x2="55.1055" y2="23" gradientUnits="userSpaceOnUse">
<stop stop-color="#00C4AA"/>
<stop offset="1" stop-color="#00CE4C"/>
</linearGradient>
<linearGradient id="paint2_linear_870_29206" x1="55.1055" y1="23" x2="55.1055" y2="35" gradientUnits="userSpaceOnUse">
<stop stop-color="#00C4AA"/>
<stop offset="1" stop-color="#00CE4C"/>
</linearGradient>
<linearGradient id="paint3_linear_870_29206" x1="27.6055" y1="31" x2="7.60547" y2="-11.5" gradientUnits="userSpaceOnUse">
<stop stop-color="#00BC45"/>
<stop offset="1" stop-color="#00CFC5"/>
</linearGradient>
</defs>
</svg>
